<svg width="175" height="240" viewBox="0 0 175 240" fill="none" xmlns="http://www.w3.org/2000/svg">
<path d="M81.1602 42.625C84.3602 16.065 108.43 -2.85505 134.91 0.354947L139.55 0.914948C140.35 1.01495 140.93 1.74495 140.83 2.54495L140.27 7.19495C137.07 33.7549 113 52.6749 86.5202 49.4649L81.8802 48.9049C81.0802 48.805 80.5102 48.0749 80.6002 47.2749L81.1602 42.625Z" fill="#0047FF"/>
<path fill-rule="evenodd" clip-rule="evenodd" d="M54.15 64.9949C24.24 64.9949 0 89.3149 0 119.305V185.355C0 215.345 24.24 239.665 54.15 239.665H120.01C149.92 239.665 174.16 215.355 174.16 185.355V119.305C174.16 89.3149 149.92 64.9949 120.01 64.9949H54.15ZM57.08 103.155C46.57 103.155 38.05 111.695 38.05 122.235V182.415C38.05 192.955 46.57 201.495 57.08 201.495H117.09C127.6 201.495 136.12 192.955 136.12 182.415V122.235C136.12 111.695 127.6 103.155 117.09 103.155H57.08Z" fill="#0047FF"/>
</svg>
